<svg width="1098" height="950" viewBox="0 0 1098 950" fill="none" xmlns="http://www.w3.org/2000/svg">
<rect width="1098" height="950" fill="white"/>
<path d="M890.983 950C1005.32 950 1098 936.337 1098 919.483C1098 902.629 1005.32 888.966 890.983 888.966C776.651 888.966 683.966 902.629 683.966 919.483C683.966 936.337 776.651 950 890.983 950Z" fill="#E6E6E6"/>
<path d="M0 0H1097.76V0.000891097C1097.76 117.663 1074.24 234.172 1028.53 342.877C982.831 451.582 915.843 550.354 831.395 633.554C746.946 716.753 646.691 782.75 536.354 827.777C426.017 872.805 307.758 895.98 188.33 895.98H0V0Z" fill="#3F3D56"/>
<path d="M807.897 287.546C857.086 287.546 896.961 248.261 896.961 199.8C896.961 151.339 857.086 112.054 807.897 112.054C758.709 112.054 718.834 151.339 718.834 199.8C718.834 248.261 758.709 287.546 807.897 287.546Z" fill="#F2F2F2"/>
<path d="M782.451 533.236C786.667 533.236 790.085 529.869 790.085 525.715C790.085 521.561 786.667 518.194 782.451 518.194C778.234 518.194 774.817 521.561 774.817 525.715C774.817 529.869 778.234 533.236 782.451 533.236Z" fill="#FF6584"/>
<path d="M914.774 391.588C918.99 391.588 922.408 388.221 922.408 384.067C922.408 379.913 918.99 376.546 914.774 376.546C910.558 376.546 907.14 379.913 907.14 384.067C907.14 388.221 910.558 391.588 914.774 391.588Z" fill="#F2F2F2"/>
<path d="M610.685 232.391C614.901 232.391 618.319 229.024 618.319 224.87C618.319 220.716 614.901 217.349 610.685 217.349C606.469 217.349 603.051 220.716 603.051 224.87C603.051 229.024 606.469 232.391 610.685 232.391Z" fill="#F2F2F2"/>
<path d="M207.353 182.251C211.569 182.251 214.987 178.883 214.987 174.729C214.987 170.576 211.569 167.208 207.353 167.208C203.137 167.208 199.719 170.576 199.719 174.729C199.719 178.883 203.137 182.251 207.353 182.251Z" fill="#F2F2F2"/>
<path d="M351.128 742.574C494.477 742.574 610.685 628.085 610.685 486.856C610.685 345.627 494.477 231.138 351.128 231.138C207.778 231.138 91.5703 345.627 91.5703 486.856C91.5703 628.085 207.778 742.574 351.128 742.574Z" fill="#6C63FF"/>
<path opacity="0.2" d="M339.676 420.419C360.757 420.419 377.847 403.583 377.847 382.814C377.847 362.045 360.757 345.208 339.676 345.208C318.596 345.208 301.506 362.045 301.506 382.814C301.506 403.583 318.596 420.419 339.676 420.419Z" fill="black"/>
<path opacity="0.2" d="M339.676 699.954C376.217 699.954 405.838 670.771 405.838 634.771C405.838 598.772 376.217 569.588 339.676 569.588C303.136 569.588 273.515 598.772 273.515 634.771C273.515 670.771 303.136 699.954 339.676 699.954Z" fill="black"/>
<path opacity="0.2" d="M147.553 552.039C156.688 552.039 164.094 544.743 164.094 535.743C164.094 526.743 156.688 519.447 147.553 519.447C138.418 519.447 131.013 526.743 131.013 535.743C131.013 544.743 138.418 552.039 147.553 552.039Z" fill="black"/>
<path opacity="0.2" d="M800.15 163.202C805.006 163.202 808.943 159.323 808.943 154.539C808.943 149.755 805.006 145.876 800.15 145.876C795.294 145.876 791.357 149.755 791.357 154.539C791.357 159.323 795.294 163.202 800.15 163.202Z" fill="black"/>
<path opacity="0.2" d="M427.354 334.934C432.21 334.934 436.147 331.055 436.147 326.271C436.147 321.487 432.21 317.608 427.354 317.608C422.498 317.608 418.562 321.487 418.562 326.271C418.562 331.055 422.498 334.934 427.354 334.934Z" fill="black"/>
<path opacity="0.2" d="M328.225 509.419C334.55 509.419 339.677 504.368 339.677 498.138C339.677 491.907 334.55 486.856 328.225 486.856C321.901 486.856 316.774 491.907 316.774 498.138C316.774 504.368 321.901 509.419 328.225 509.419Z" fill="black"/>
<path opacity="0.2" d="M778.747 232.414C783.603 232.414 787.54 228.535 787.54 223.751C787.54 218.967 783.603 215.088 778.747 215.088C773.891 215.088 769.954 218.967 769.954 223.751C769.954 228.535 773.891 232.414 778.747 232.414Z" fill="black"/>
<path opacity="0.2" d="M542.092 445.512C546.948 445.512 550.885 441.634 550.885 436.849C550.885 432.065 546.948 428.187 542.092 428.187C537.236 428.187 533.299 432.065 533.299 436.849C533.299 441.634 537.236 445.512 542.092 445.512Z" fill="black"/>
<path opacity="0.2" d="M857.541 228.094C864.556 228.094 870.242 222.491 870.242 215.581C870.242 208.67 864.556 203.068 857.541 203.068C850.527 203.068 844.841 208.67 844.841 215.581C844.841 222.491 850.527 228.094 857.541 228.094Z" fill="black"/>
<path opacity="0.2" d="M469.478 537.713C476.492 537.713 482.178 532.111 482.178 525.2C482.178 518.29 476.492 512.687 469.478 512.687C462.463 512.687 456.777 518.29 456.777 525.2C456.777 532.111 462.463 537.713 469.478 537.713Z" fill="black"/>
<path opacity="0.2" d="M190.813 399.11C199.948 399.11 207.353 391.814 207.353 382.814C207.353 373.814 199.948 366.518 190.813 366.518C181.678 366.518 174.272 373.814 174.272 382.814C174.272 391.814 181.678 399.11 190.813 399.11Z" fill="black"/>
<path d="M407.364 634.256C380.068 634.22 352.796 632.667 325.677 629.605C244.112 620.479 168.886 598.915 113.857 568.886C58.1552 538.488 29.6524 502.895 33.5981 468.663C36.3316 444.946 59.599 423.718 104.729 403.769C105.345 403.498 106.044 403.479 106.674 403.716C107.304 403.952 107.813 404.426 108.089 405.032C108.365 405.638 108.386 406.327 108.146 406.948C107.907 407.569 107.428 408.071 106.813 408.344C63.4633 427.506 41.1687 447.421 38.6551 469.228C34.9562 501.314 62.5395 535.148 116.324 564.499C170.781 594.218 245.335 615.569 326.251 624.623C407.168 633.677 484.682 629.338 544.517 612.409C603.612 595.687 638.194 568.808 641.892 536.723C644.394 515.016 632.259 492.001 606.797 470.164C606.288 469.727 605.976 469.109 605.929 468.445C605.883 467.782 606.105 467.127 606.549 466.626C606.992 466.124 607.619 465.817 608.293 465.771C608.966 465.725 609.63 465.944 610.139 466.381C636.921 489.351 649.649 513.87 646.949 537.288C643.003 571.52 607.125 599.91 545.922 617.227C506.074 628.502 458.512 634.256 407.364 634.256Z" fill="white"/>
<path d="M806.568 862.234L808.371 878.225L792.141 876.448V856.904L806.568 862.234Z" fill="#FFB8B8"/>
<path d="M976.09 862.234L974.286 878.225L990.517 876.448V856.904L976.09 862.234Z" fill="#FFB8B8"/>
<path d="M804.764 517.544L797.551 700.55C797.551 700.55 774.106 837.36 779.516 840.913C784.927 844.467 779.516 864.011 779.516 864.011L810.175 867.565C810.175 867.565 810.175 853.351 817.389 848.02C824.602 842.69 891.329 592.168 891.329 592.168L959.859 833.806C959.859 833.806 958.056 848.02 963.466 848.02C968.877 848.02 970.68 867.565 970.68 867.565H1001.34V848.02C1001.34 848.02 1010.36 846.244 1004.95 832.03C999.535 817.815 979.697 517.544 979.697 517.544L804.764 517.544Z" fill="#2F2E41"/>
<path d="M795.747 862.234C795.747 862.234 786.73 856.904 783.123 860.457C779.516 864.011 750.662 899.546 750.662 899.546C750.662 899.546 710.986 924.421 747.055 931.528C783.123 938.635 810.175 904.876 811.978 901.323C813.782 897.769 810.175 869.341 808.371 872.895C806.568 876.448 801.158 874.672 799.354 872.895C797.551 871.118 795.747 862.234 795.747 862.234Z" fill="#2F2E41"/>
<path d="M986.911 862.234C986.911 862.234 995.928 856.904 999.535 860.457C1003.14 864.011 1032 899.546 1032 899.546C1032 899.546 1071.67 924.421 1035.6 931.528C999.535 938.635 972.483 904.876 970.68 901.323C968.877 897.769 972.483 869.341 974.287 872.895C976.09 876.448 981.501 874.672 983.304 872.895C985.107 871.118 986.911 862.234 986.911 862.234Z" fill="#2F2E41"/>
<path d="M913.872 254.584C934.29 254.584 950.842 238.277 950.842 218.161C950.842 198.045 934.29 181.737 913.872 181.737C893.454 181.737 876.902 198.045 876.902 218.161C876.902 238.277 893.454 254.584 913.872 254.584Z" fill="#FFB8B8"/>
<path d="M889.526 238.593L884.115 293.673L927.397 302.557L938.219 236.817L889.526 238.593Z" fill="#FFB8B8"/>
<path d="M934.611 281.236C934.611 281.236 923.791 304.333 884.115 279.459L810.175 517.544C810.175 517.544 909.363 576.177 972.484 531.758L950.842 291.896L934.611 281.236Z" fill="#575A89"/>
<path d="M891.329 254.584L857.064 249.254L853.457 272.352C853.457 272.352 806.568 277.682 801.158 295.45L806.568 426.929C806.568 426.929 790.337 455.357 804.764 473.125C804.764 473.125 781.32 521.097 799.354 529.981C799.354 529.981 840.833 510.437 866.081 515.767C866.081 515.767 880.508 512.214 880.508 501.553C880.508 490.893 891.329 254.584 891.329 254.584Z" fill="#2F2E41"/>
<path d="M932.808 258.138L952.646 263.468L954.449 288.343C954.449 288.343 1003.14 318.547 1004.95 336.315C1006.75 354.082 968.877 439.367 968.877 439.367C968.877 439.367 983.304 464.241 977.894 480.232C977.894 480.232 1001.34 526.428 986.911 538.865C986.911 538.865 959.859 545.972 956.253 535.311C952.646 524.651 920.184 402.055 934.611 343.422C934.611 343.422 920.184 268.798 932.808 258.138Z" fill="#2F2E41"/>
<path d="M953.547 316.001H952.869V297.68C952.869 296.288 952.59 294.909 952.049 293.623C951.509 292.336 950.716 291.167 949.716 290.183C948.717 289.198 947.531 288.417 946.225 287.884C944.919 287.351 943.519 287.077 942.106 287.077H902.709C901.296 287.077 899.896 287.351 898.591 287.884C897.285 288.417 896.098 289.198 895.099 290.183C894.1 291.167 893.307 292.336 892.766 293.623C892.225 294.909 891.947 296.288 891.947 297.68V398.187C891.947 399.58 892.225 400.958 892.766 402.245C893.307 403.531 894.1 404.7 895.099 405.685C896.098 406.669 897.285 407.45 898.591 407.983C899.896 408.516 901.296 408.79 902.709 408.79H942.106C943.519 408.79 944.919 408.516 946.225 407.983C947.531 407.45 948.717 406.669 949.716 405.685C950.716 404.7 951.509 403.531 952.049 402.245C952.59 400.958 952.869 399.58 952.869 398.187V329.042H953.547V316.001Z" fill="white"/>
<path d="M970.68 387.841C970.68 387.841 956.253 341.645 934.611 355.859C912.97 370.073 949.039 409.162 949.039 409.162L970.68 387.841Z" fill="#FFB8B8"/>
<path d="M871.491 354.082C871.491 354.082 896.739 323.878 909.363 338.092C921.987 352.306 887.722 384.287 887.722 384.287L871.491 354.082Z" fill="#FFB8B8"/>
<path d="M806.568 293.673C806.568 293.673 797.551 291.896 792.14 307.887C786.73 323.878 766.892 384.287 766.892 394.948C766.892 405.608 774.106 448.25 813.781 441.143C853.457 434.036 900.346 384.287 900.346 384.287L875.098 346.975L820.995 378.957L806.568 293.673Z" fill="#2F2E41"/>
<path opacity="0.1" d="M814.36 339.735L821.897 378.068L877.804 346.088L825.504 365.632L813.974 337.448L814.36 339.735Z" fill="black"/>
<path opacity="0.1" d="M973.385 378.068L980.599 383.399L984.206 358.524L973.385 378.068Z" fill="black"/>
<path opacity="0.1" d="M805.666 445.585C805.666 445.585 858.638 431.388 883.55 400.286C883.55 400.286 857.966 442.032 805.666 445.585Z" fill="black"/>
<path opacity="0.1" d="M939.12 413.604C939.12 413.604 950.274 467.386 978.962 468.923C978.962 468.923 944.53 479.344 939.12 413.604Z" fill="black"/>
<path d="M997.731 329.208C997.731 329.208 1003.14 332.761 1006.75 348.752C1010.36 364.743 1033.8 425.153 1024.78 439.367C1015.77 453.581 1001.34 485.562 970.68 464.241L940.022 409.162L970.68 380.734L983.304 389.618L997.731 329.208Z" fill="#2F2E41"/>
<path d="M878.38 227.399C878.38 227.399 847.374 177.89 880.4 175.316C891.421 174.556 902.183 171.667 912.071 166.813C923.019 161.325 936.799 157.154 944.132 165.602C947.332 169.465 951.063 172.87 955.216 175.719C961.658 179.928 969.111 186.751 964.984 194.069L958.218 206.068L948.746 230.065C950.952 219.714 951.007 211.024 945.363 206.734C945.363 206.734 913.872 219.938 898.002 196.069C880.236 182.937 874.584 224.272 878.38 227.399Z" fill="#2F2E41"/>
<path d="M922.889 331.873C927.869 331.873 931.906 327.896 931.906 322.989C931.906 318.083 927.869 314.105 922.889 314.105C917.909 314.105 913.872 318.083 913.872 322.989C913.872 327.896 917.909 331.873 922.889 331.873Z" fill="#6C63FF"/>
<path d="M441.079 79H52.921C47.6395 78.9941 42.5759 76.9279 38.8413 73.2546C35.1067 69.5814 33.006 64.601 33 59.4062V41.5937C33.006 36.399 35.1067 31.4186 38.8413 27.7454C42.5759 24.0721 47.6395 22.0059 52.921 22H441.079C446.361 22.0059 451.424 24.0721 455.159 27.7454C458.893 31.4186 460.994 36.399 461 41.5937V59.4062C460.994 64.601 458.893 69.5814 455.159 73.2546C451.424 76.9279 446.361 78.9941 441.079 79V79ZM52.921 23.1875C47.9596 23.193 43.2029 25.134 39.6947 28.5847C36.1864 32.0353 34.213 36.7138 34.2073 41.5937V59.4062C34.213 64.2862 36.1864 68.9647 39.6947 72.4153C43.2029 75.866 47.9596 77.807 52.921 77.8125H441.079C446.04 77.807 450.797 75.866 454.305 72.4153C457.814 68.9647 459.787 64.2862 459.793 59.4062V41.5937C459.787 36.7138 457.814 32.0353 454.305 28.5847C450.797 25.134 446.04 23.193 441.079 23.1875H52.921Z" fill="#3F3D56"/>
<g filter="url(#filter0_d)">
<path d="M339.559 35H82.4408C76.1222 35 71 41.0442 71 48.5V48.5C71 55.9559 76.1222 62 82.4408 62H339.559C345.878 62 351 55.9559 351 48.5C351 41.0442 345.878 35 339.559 35Z" fill="#F6F5F5"/>
</g>
<g filter="url(#filter1_d)">
<path d="M423.66 62.2643C423.375 62.6391 422.939 62.8943 422.448 62.9738C421.958 63.0532 421.453 62.9504 421.045 62.688L410.801 56.1386C410.393 55.8761 410.115 55.4755 410.029 55.0249C409.942 54.5743 410.054 54.1106 410.34 53.7357C410.625 53.3609 411.061 53.1057 411.552 53.0262C412.042 52.9468 412.547 53.0496 412.955 53.312L423.199 59.8614C423.607 60.1239 423.885 60.5245 423.971 60.9751C424.058 61.4257 423.946 61.8895 423.66 62.2643Z" fill="#6C63FF"/>
</g>
<g filter="url(#filter2_d)">
<path d="M411.745 54.6696C410.326 56.6948 408.339 58.254 406.034 59.15C403.73 60.0461 401.211 60.2388 398.797 59.7037C396.383 59.1687 394.181 57.9299 392.471 56.144C390.761 54.3582 389.619 52.1054 389.19 49.6707C388.761 47.236 389.063 44.7287 390.059 42.4658C391.055 40.2029 392.699 38.2861 394.785 36.9577C396.87 35.6293 399.303 34.9491 401.775 35.003C404.248 35.0569 406.648 35.8425 408.674 37.2605C411.387 39.1644 413.234 42.0666 413.81 45.3303C414.385 48.594 413.643 51.9527 411.745 54.6696ZM393.821 42.1228C392.758 43.6417 392.168 45.4418 392.128 47.2956C392.088 49.1493 392.598 50.9734 393.594 52.5372C394.591 54.101 396.029 55.3343 397.726 56.081C399.424 56.8278 401.305 57.0545 403.131 56.7325C404.958 56.4105 406.647 55.5543 407.987 54.272C409.327 52.9898 410.256 51.3392 410.658 49.529C411.059 47.7187 410.914 45.8302 410.242 44.102C409.57 42.3739 408.4 40.8839 406.881 39.8204C404.843 38.3971 402.323 37.8401 399.875 38.2718C397.427 38.7034 395.25 40.0884 393.821 42.1228Z" fill="white"/>
</g>
<defs>
<filter id="filter0_d" x="67" y="35" width="288" height="35" filterUnits="userSpaceOnUse" color-interpolation-filters="sRGB">
<feFlood flood-opacity="0" result="BackgroundImageFix"/>
<feColorMatrix in="SourceAlpha" type="matrix" values="0 0 0 0 0 0 0 0 0 0 0 0 0 0 0 0 0 0 127 0"/>
<feOffset dy="4"/>
<feGaussianBlur stdDeviation="2"/>
<feColorMatrix type="matrix" values="0 0 0 0 0 0 0 0 0 0 0 0 0 0 0 0 0 0 0.25 0"/>
<feBlend mode="normal" in2="BackgroundImageFix" result="effect1_dropShadow"/>
<feBlend mode="normal" in="SourceGraphic" in2="effect1_dropShadow" result="shape"/>
</filter>
<filter id="filter1_d" x="406" y="53" width="22" height="18" filterUnits="userSpaceOnUse" color-interpolation-filters="sRGB">
<feFlood flood-opacity="0" result="BackgroundImageFix"/>
<feColorMatrix in="SourceAlpha" type="matrix" values="0 0 0 0 0 0 0 0 0 0 0 0 0 0 0 0 0 0 127 0"/>
<feOffset dy="4"/>
<feGaussianBlur stdDeviation="2"/>
<feColorMatrix type="matrix" values="0 0 0 0 0 0 0 0 0 0 0 0 0 0 0 0 0 0 0.25 0"/>
<feBlend mode="normal" in2="BackgroundImageFix" result="effect1_dropShadow"/>
<feBlend mode="normal" in="SourceGraphic" in2="effect1_dropShadow" result="shape"/>
</filter>
<filter id="filter2_d" x="385" y="35" width="33" height="33" filterUnits="userSpaceOnUse" color-interpolation-filters="sRGB">
<feFlood flood-opacity="0" result="BackgroundImageFix"/>
<feColorMatrix in="SourceAlpha" type="matrix" values="0 0 0 0 0 0 0 0 0 0 0 0 0 0 0 0 0 0 127 0"/>
<feOffset dy="4"/>
<feGaussianBlur stdDeviation="2"/>
<feColorMatrix type="matrix" values="0 0 0 0 0 0 0 0 0 0 0 0 0 0 0 0 0 0 0.25 0"/>
<feBlend mode="normal" in2="BackgroundImageFix" result="effect1_dropShadow"/>
<feBlend mode="normal" in="SourceGraphic" in2="effect1_dropShadow" result="shape"/>
</filter>
</defs>
</svg>
